# xmcd
#
# Track frame offsets:
# 150
# 11743
# 26176
# 36074
# 51725
# 66202
# 81684
# 92563
# 107824
# 122638
# 137700
# 162280
# 179485
# 190623
#
# Disc length: 2755 seconds
#
#
# Revision: 1
# Processed by: cddbd v1.5.2PL0 Copyright (c) Steve Scherf et al.
# Submitted via: FreeRIP 2.951 
#
DISCID=c80ac10e
DTITLE=Breno Reis e Marco Viola - Pode Voltar Paixão
DYEAR=2000
DGENRE=Sertanejo
TTITLE0=Piracicabano
TTITLE1=O amor te dessas coisas
TTITLE2=No batido do pagode
TTITLE3=Um amor e uma paixão
TTITLE4=Inquilino de violeiro
TTITLE5=Chamada a cobrar
TTITLE6=Chão de Goiás
TTITLE7=Cobra venenosa
TTITLE8=Águas do São Francisco
TTITLE9=Faca que não corta
TTITLE10=Pode voltar paixão
TTITLE11=Zé do boi
TTITLE12=Queima do alho
TTITLE13=Caçador
EXTD=
EXTT0=
EXTT1=
EXTT2=
EXTT3=
EXTT4=
EXTT5=
EXTT6=
EXTT7=
EXTT8=
EXTT9=
EXTT10=
EXTT11=
EXTT12=
EXTT13=
PLAYORDER=
